<?xml version="1.0" standalone="no"?>
<!DOCTYPE svg PUBLIC "-//W3C//DTD SVG 20010904//EN"
 "http://www.w3.org/TR/2001/REC-SVG-20010904/DTD/svg10.dtd">
<svg version="1.0" xmlns="http://www.w3.org/2000/svg"
 width="1600.000000pt" height="1200.000000pt" viewBox="0 0 1600.000000 1200.000000"
 preserveAspectRatio="xMidYMid meet">

<g transform="translate(0.000000,1200.000000) scale(0.100000,-0.100000)"
fill="#000000" stroke="none">
<path d="M6045 8944 c-264 -24 -856 -75 -1145 -99 l-175 -14 -35 34 c-45 43
-99 58 -192 54 -62 -4 -81 -9 -110 -31 -19 -15 -41 -40 -48 -57 -15 -37 -2
-35 -329 -62 l-254 -21 -191 -111 c-105 -61 -210 -121 -234 -135 l-42 -24 2
-355 3 -355 255 -148 255 -147 3 -339 c1 -186 5 -341 10 -345 4 -3 34 -21 66
-39 l59 -33 -6 49 c-4 27 -14 116 -23 198 -11 110 -24 178 -49 255 -47 148
-50 177 -27 237 l20 50 -26 -1 c-44 0 -40 31 5 41 l38 8 -44 5 c-58 8 -64 27
-11 36 l42 7 -24 25 c-14 15 -22 34 -20 48 2 13 -6 75 -17 139 -22 123 -26
172 -13 180 4 2 53 -21 107 -53 55 -31 125 -71 157 -89 l56 -32 30 52 c17 29
40 78 51 108 31 84 73 259 66 279 -7 23 60 118 104 148 22 15 50 23 80 24 25
0 39 3 31 6 -28 10 -62 48 -86 95 -19 37 -24 63 -24 120 0 40 5 90 10 110 9
32 16 39 52 49 108 29 186 -39 192 -166 2 -28 9 -62 16 -75 8 -15 12 -54 11
-101 -1 -42 2 -79 6 -82 5 -3 27 -8 48 -10 60 -8 73 -16 100 -62 27 -44 56
-131 48 -139 -3 -3 4 -33 16 -68 68 -206 67 -416 -4 -603 -14 -38 -32 -91 -40
-117 -20 -73 -53 -135 -87 -163 -34 -29 -48 -32 -48 -10 0 13 -4 14 -21 5 -11
-7 -28 -9 -36 -5 -13 5 -11 11 12 35 32 34 30 37 -11 16 -27 -15 -44 -13 -44
4 0 5 19 27 43 49 l42 41 -32 -10 c-59 -18 -87 -28 -188 -69 -55 -23 -119 -46
-142 -51 l-43 -11 0 -127 c-1 -149 -13 -294 -37 -410 -14 -74 -19 -85 -42 -94
-16 -6 -36 -6 -51 -1 -21 7 -35 2 -85 -36 -90 -66 -115 -92 -115 -118 0 -44
77 -58 140 -25 67 34 150 102 150 122 0 11 3 20 6 20 3 0 44 -22 91 -50 47
-27 88 -50 92 -50 4 0 134 74 290 165 156 91 289 165 295 165 6 0 84 -43 173
-94 l163 -94 107 62 c60 34 161 93 226 130 l117 68 0 196 1 197 202 117 c264
152 719 416 830 481 l87 51 0 352 0 353 -57 34 c-32 19 -123 71 -203 117 -80
46 -194 112 -253 147 -123 71 -103 69 -342 47z"/>
<path d="M4737 8030 c-3 -8 -21 -67 -40 -131 l-33 -116 32 -37 c33 -38 64
-111 64 -150 1 -21 1 -21 13 -1 8 14 12 68 11 170 0 123 -4 162 -21 215 -12
37 -23 59 -26 50z"/>
<path d="M4278 7875 c-27 -52 -48 -97 -48 -99 0 -2 9 -6 20 -9 10 -3 18 -1 17
3 -1 4 15 23 36 42 l37 33 -7 63 -8 63 -47 -96z"/>
<path d="M4360 7706 c0 -3 9 -10 20 -16 11 -6 20 -8 20 -6 0 3 -9 10 -20 16
-11 6 -20 8 -20 6z"/>
<path d="M7970 7639 c-281 -34 -539 -118 -865 -279 -413 -204 -748 -434 -901
-618 -65 -77 -119 -183 -134 -261 -6 -30 -10 -219 -10 -436 0 -408 4 -443 53
-525 106 -177 412 -380 732 -486 215 -70 276 -79 545 -79 218 1 245 3 363 28
272 58 589 183 892 351 465 258 742 495 827 705 22 55 23 66 26 475 4 486 2
497 -87 617 -147 199 -558 420 -909 490 -122 24 -405 34 -532 18z m64 -1223
c-69 -49 -504 -253 -504 -237 0 17 476 249 515 251 5 0 0 -6 -11 -14z"/>
<path d="M4605 7565 c11 -9 29 -21 40 -26 l20 -10 -20 16 c-11 9 -29 21 -40
26 l-20 10 20 -16z"/>
<path d="M4350 7523 c5 -21 12 -60 16 -88 3 -27 8 -53 11 -58 4 -6 123 53 146
73 9 8 -151 110 -171 110 -6 0 -7 -13 -2 -37z"/>
<path d="M3960 7536 c0 -3 9 -10 20 -16 11 -6 20 -8 20 -6 0 3 -9 10 -20 16
-11 6 -20 8 -20 6z"/>
<path d="M4709 7473 c-13 -16 -12 -17 4 -4 16 13 21 21 13 21 -2 0 -10 -8 -17
-17z"/>
<path d="M4170 7416 c0 -3 9 -10 20 -16 11 -6 20 -8 20 -6 0 3 -9 10 -20 16
-11 6 -20 8 -20 6z"/>
<path d="M4544 7394 c-18 -14 -18 -15 4 -4 12 6 22 13 22 15 0 8 -5 6 -26 -11z"/>
<path d="M4220 7386 c0 -3 9 -10 20 -16 11 -6 20 -8 20 -6 0 3 -9 10 -20 16
-11 6 -20 8 -20 6z"/>
<path d="M4270 7356 c0 -3 9 -10 20 -16 11 -6 20 -8 20 -6 0 3 -9 10 -20 16
-11 6 -20 8 -20 6z"/>
<path d="M4062 6830 c-7 -41 -17 -92 -23 -113 -10 -38 -11 -39 -52 -35 -36 4
-50 0 -92 -30 -65 -46 -115 -93 -115 -108 0 -24 32 -44 70 -44 31 0 56 12 117
53 50 35 79 62 81 75 4 25 12 28 30 10 6 -6 14 -9 17 -7 4 4 -11 211 -18 259
-2 8 -8 -19 -15 -60z"/>
<path d="M9792 5799 c-62 -31 -96 -86 -96 -157 -1 -32 1 -68 4 -82 l5 -25
-170 -15 -170 -15 -225 -132 -225 -131 -3 -359 -2 -358 147 -84 c82 -47 196
-113 256 -148 l107 -64 0 -337 0 -338 53 -30 c28 -17 164 -95 301 -174 l249
-144 54 30 c30 16 59 34 64 40 6 7 7 144 2 347 l-6 335 -92 36 c-125 50 -157
58 -166 45 -14 -24 -59 3 -119 71 -34 38 -59 74 -55 80 4 6 1 9 -5 8 -7 -2
-19 17 -27 42 -9 25 -33 90 -54 145 -58 152 -72 242 -67 409 4 118 2 143 -10
152 -14 10 -12 21 12 90 40 112 78 168 128 189 22 9 60 29 84 46 l44 30 1 87
c1 125 1 142 -3 194 -5 79 14 88 158 73 69 -7 71 -7 92 20 60 76 -12 144 -153
145 -52 0 -81 -6 -113 -21z"/>
<path d="M11690 5704 c-117 -11 -381 -34 -575 -49 -310 -26 -799 -67 -879 -75
-54 -6 -106 -10 -116 -10 -14 0 -18 -12 -23 -67 -4 -38 -9 -78 -13 -90 -5 -19
-2 -23 15 -23 33 0 101 -69 133 -135 33 -72 35 -99 7 -119 l-21 -14 31 -120
c62 -242 103 -339 179 -429 l27 -32 150 89 c83 49 155 89 161 89 24 2 23 -35
-1 -182 -34 -203 -30 -192 -70 -217 l-34 -21 34 -31 c41 -36 42 -42 20 -238
-15 -127 -61 -441 -71 -485 -5 -20 14 -32 261 -171 l40 -23 220 128 220 127 5
198 5 198 360 209 c198 115 405 236 460 268 55 32 144 84 198 115 l97 57 -2
356 -3 357 -50 29 c-362 213 -572 327 -599 326 -17 -1 -92 -7 -166 -15z"/>
<path d="M10200 4666 c0 -51 13 -116 24 -116 21 0 87 -51 80 -62 -4 -6 1 -6
15 1 20 11 20 13 -24 67 -25 30 -54 73 -65 94 -23 46 -30 50 -30 16z"/>
<path d="M10119 4383 c-13 -16 -12 -17 4 -4 16 13 21 21 13 21 -2 0 -10 -8
-17 -17z"/>
<path d="M9970 4299 c0 -5 5 -7 10 -4 6 3 10 8 10 11 0 2 -4 4 -10 4 -5 0 -10
-5 -10 -11z"/>
<path d="M10118 4230 l-98 -58 71 -41 c82 -47 99 -50 100 -18 2 31 6 64 18
122 5 27 9 51 8 51 -1 1 -46 -24 -99 -56z"/>
<path d="M10473 4189 c-35 -22 -46 -37 -15 -20 22 13 58 40 52 41 -3 0 -20
-10 -37 -21z"/>
<path d="M9904 4171 c8 -13 66 -44 72 -39 2 3 -15 15 -38 28 -22 13 -38 18
-34 11z"/>
<path d="M10410 4152 c-8 -2 -30 -13 -48 -24 l-33 -20 22 -24 23 -24 -28 -237
c-15 -130 -36 -286 -47 -346 -10 -61 -17 -113 -15 -115 3 -2 58 28 124 67
l119 70 -4 308 c-4 307 -4 308 -26 317 -12 5 -33 14 -47 21 -14 6 -32 9 -40 7z"/>
<path d="M10224 4044 c-18 -14 -18 -15 4 -4 12 6 22 13 22 15 0 8 -5 6 -26
-11z"/>
<path d="M10178 4023 c7 -3 16 -2 19 1 4 3 -2 6 -13 5 -11 0 -14 -3 -6 -6z"/>
<path d="M10514 3455 c-25 -61 -20 -68 98 -148 71 -48 128 -64 171 -48 22 9
27 17 27 44 0 29 -10 42 -87 109 -79 68 -90 74 -111 65 -17 -8 -32 -8 -53 0
-29 11 -31 10 -45 -22z"/>
<path d="M10261 3314 c0 -11 3 -14 6 -6 3 7 2 16 -1 19 -3 4 -6 -2 -5 -13z"/>
<path d="M10248 3263 c-7 -26 -44 -31 -80 -12 -26 14 -29 9 -35 -44 l-5 -44
73 -55 c104 -77 169 -96 217 -62 45 31 32 54 -91 153 -36 30 -68 61 -69 70 -3
11 -6 10 -10 -6z"/>
</g>
</svg>
